<?xml version="1.0" encoding="UTF-8" standalone="no"?>
<svg
   viewBox="0 0 24 24"
   version="1.1"
   id="svg4"
   sodipodi:docname="editar.svg"
   inkscape:version="1.2.1 (9c6d41e410, 2022-07-14)"
   xmlns:inkscape="http://www.inkscape.org/namespaces/inkscape"
   xmlns:sodipodi="http://sodipodi.sourceforge.net/DTD/sodipodi-0.dtd"
   xmlns="http://www.w3.org/2000/svg"
   xmlns:svg="http://www.w3.org/2000/svg">
  <defs
     id="defs8" />
  <sodipodi:namedview
     id="namedview6"
     pagecolor="#505050"
     bordercolor="#eeeeee"
     borderopacity="1"
     inkscape:showpageshadow="0"
     inkscape:pageopacity="0"
     inkscape:pagecheckerboard="0"
     inkscape:deskcolor="#505050"
     showgrid="false"
     inkscape:zoom="34.541667"
     inkscape:cx="11.869723"
     inkscape:cy="12.014475"
     inkscape:window-width="1920"
     inkscape:window-height="1009"
     inkscape:window-x="-8"
     inkscape:window-y="-8"
     inkscape:window-maximized="1"
     inkscape:current-layer="svg4" />
  <path
     d="M21,12a1,1,0,0,0-1,1v6a1,1,0,0,1-1,1H5a1,1,0,0,1-1-1V5A1,1,0,0,1,5,4h6a1,1,0,0,0,0-2H5A3,3,0,0,0,2,5V19a3,3,0,0,0,3,3H19a3,3,0,0,0,3-3V13A1,1,0,0,0,21,12ZM6,12.76V17a1,1,0,0,0,1,1h4.24a1,1,0,0,0,.71-.29l6.92-6.93h0L21.71,8a1,1,0,0,0,0-1.42L17.47,2.29a1,1,0,0,0-1.42,0L13.23,5.12h0L6.29,12.05A1,1,0,0,0,6,12.76ZM16.76,4.41l2.83,2.83L18.17,8.66,15.34,5.83ZM8,13.17l5.93-5.93,2.83,2.83L10.83,16H8Z"
     fill="#6563ff"
     id="path2"
     style="fill:#c61156;fill-opacity:1"
     inkscape:export-filename="path2.svg"
     inkscape:export-xdpi="96"
     inkscape:export-ydpi="96" />
</svg>
